<?xml version="1.0" standalone="no"?>
<!DOCTYPE svg PUBLIC "-//W3C//DTD SVG 20010904//EN"
 "http://www.w3.org/TR/2001/REC-SVG-20010904/DTD/svg10.dtd">
<svg version="1.0" xmlns="http://www.w3.org/2000/svg"
 width="963.000000pt" height="963.000000pt" viewBox="0 0 963.000000 963.000000"
 preserveAspectRatio="xMidYMid meet">
<metadata>
Created by potrace 1.14, written by Peter Selinger 2001-2017
</metadata>
<g transform="translate(0.000000,963.000000) scale(0.100000,-0.100000)"
fill="#000000" stroke="none">
<path d="M5012 9095 c-34 -29 -64 -99 -86 -205 -18 -86 -51 -343 -61 -475 -6
-75 -21 -131 -87 -330 -77 -230 -136 -390 -179 -484 -11 -24 -29 -66 -40 -95
-58 -147 -234 -446 -263 -446 -21 0 -59 49 -131 171 -270 455 -466 1071 -495
1554 -6 88 -12 175 -16 194 -17 99 -117 133 -179 59 -23 -28 -25 -36 -25 -136
1 -59 5 -138 10 -177 10 -73 24 -749 36 -1723 l7 -574 -31 16 c-28 14 -136 16
-1026 16 -877 0 -1000 -2 -1034 -16 -47 -18 -65 -47 -60 -99 2 -31 10 -44 35
-61 48 -32 185 -36 1183 -32 806 3 867 4 898 21 l32 18 0 -346 0 -345 -710 0
c-637 0 -714 -2 -751 -17 -80 -32 -87 -132 -11 -169 35 -18 76 -19 751 -19
l713 0 -7 -285 c-4 -157 -9 -287 -11 -289 -2 -3 -136 -6 -297 -8 -370 -5 -392
-7 -429 -43 -38 -38 -39 -96 -3 -130 35 -33 89 -38 428 -39 l287 -1 0 -57 c0
-246 -98 -1301 -156 -1683 -136 -904 -363 -1464 -797 -1973 -147 -171 -405
-326 -655 -393 -132 -36 -367 -45 -493 -20 -160 33 -301 91 -414 171 -230 163
-239 425 -23 659 83 90 167 157 240 191 73 34 107 32 161 -9 63 -48 81 -56
122 -56 29 0 45 8 72 35 40 40 39 25 13 232 -12 100 -2 215 24 276 19 46 91
123 142 153 39 23 52 26 96 20 58 -8 172 -58 245 -107 26 -18 120 -105 208
-194 133 -135 166 -163 195 -168 75 -11 129 45 110 112 -12 43 -81 129 -206
257 -165 167 -301 254 -466 296 -102 25 -177 20 -263 -21 -74 -34 -178 -129
-222 -203 -44 -73 -73 -190 -73 -298 l0 -88 -45 6 c-34 3 -69 -3 -131 -23
-142 -46 -269 -141 -404 -302 -137 -163 -186 -295 -177 -483 5 -121 27 -194
84 -280 106 -161 319 -293 580 -362 113 -30 126 -32 323 -32 220 -1 284 8 447
60 109 35 288 123 390 191 163 108 360 317 506 536 386 580 574 1227 687 2367
34 345 90 1066 90 1160 l0 30 2686 0 c1952 0 2697 3 2730 11 53 14 94 57 94
100 0 18 -11 41 -29 61 l-29 33 -2723 3 -2722 2 6 83 c20 258 29 1311 18 2051
-6 429 -10 781 -8 782 1 1 18 -37 36 -84 84 -212 236 -505 337 -647 97 -138
182 -190 269 -166 90 24 201 164 328 411 33 63 63 120 67 125 4 6 32 67 61
138 l54 127 2 -57 c24 -587 147 -1169 328 -1551 125 -262 257 -407 422 -463
58 -20 85 -23 188 -22 114 2 253 19 340 42 78 20 99 88 44 143 -30 30 -32 31
-102 24 -290 -26 -376 -18 -466 43 -192 128 -393 615 -485 1176 -50 307 -61
460 -61 890 l0 400 42 165 c67 265 87 380 87 518 l1 124 -33 29 c-42 38 -98
40 -140 4z"/>
<path d="M4470 6380 c-18 -11 -18 -47 -1 -224 7 -71 18 -144 25 -161 17 -41
61 -75 97 -75 39 0 87 44 95 87 11 57 -14 167 -57 253 -55 109 -110 151 -159
120z"/>
<path d="M3911 6312 c-14 -11 -26 -36 -32 -67 -15 -79 3 -287 32 -382 12 -38
63 -73 107 -73 33 0 77 42 88 84 15 62 -69 367 -118 427 -22 27 -53 31 -77 11z"/>
</g>
</svg>
